# xmcd
#
# Track frame offsets:
#	150
#	7377
#	14480
#	28692
#	35470
#	43400
#	52652
#	58567
#	67392
#	77587
#	84062
#	89132
#	96182
#	107352
#	118805
#	125400
#	132145
#	138182
#	151882
#	155812
#	162702
#	169862
#	179380
#	190397
#	205617
#	213257
#
# Disc length: 2930 seconds
#
# Revision: 1
# Processed by: cddbd v1.5PL3 Copyright (c) Steve Scherf et al.
# Submitted via: CDex 1.50Beta5
#
DISCID=6d0b701a
DTITLE=Various Artist - 楽しい童謡 2
DYEAR=1900
DGENRE=Country
TTITLE0=いぬのおまわりさん
TTITLE1=おおきなくりのきのしたで
TTITLE2=げんこつやまのたぬきさん
TTITLE3=ちょうちょ
TTITLE4=もりのくまさん
TTITLE5=おもちゃのチャチャチャ
TTITLE6=アイアイ
TTITLE7=やまのおんがくか
TTITLE8=ごひきのこぶたとチャールストン
TTITLE9=おすもうくまちゃん
TTITLE10=とんぼのめがね
TTITLE11=ふしぎなポケット
TTITLE12=てをたたきましょう
TTITLE13=こんこんクシャンのうた
TTITLE14=たいこのおけいこ
TTITLE15=おなかがへるうた
TTITLE16=かわいいかくれんぼ
TTITLE17=パンダがなんだ
TTITLE18=どんぐりころころ
TTITLE19=おはなしゆびさん
TTITLE20=かたつむり
TTITLE21=あかとんぼ
TTITLE22=うみ
TTITLE23=おおきなふるどけい
TTITLE24=どじょっこふなっこ
TTITLE25=はと
EXTD=
EXTT0=
EXTT1=
EXTT2=
EXTT3=
EXTT4=
EXTT5=
EXTT6=
EXTT7=
EXTT8=
EXTT9=
EXTT10=
EXTT11=
EXTT12=
EXTT13=
EXTT14=
EXTT15=
EXTT16=
EXTT17=
EXTT18=
EXTT19=
EXTT20=
EXTT21=
EXTT22=
EXTT23=
EXTT24=
EXTT25=
PLAYORDER=
